<?xml version="1.0" encoding="UTF-8" standalone="no"?>
<!-- Created with Inkscape (http://www.inkscape.org/) -->
<svg
   xmlns:dc="http://purl.org/dc/elements/1.1/"
   xmlns:cc="http://creativecommons.org/ns#"
   xmlns:rdf="http://www.w3.org/1999/02/22-rdf-syntax-ns#"
   xmlns:svg="http://www.w3.org/2000/svg"
   xmlns="http://www.w3.org/2000/svg"
   xmlns:sodipodi="http://sodipodi.sourceforge.net/DTD/sodipodi-0.dtd"
   xmlns:inkscape="http://www.inkscape.org/namespaces/inkscape"
   width="128"
   height="128"
   id="svg2"
   sodipodi:version="0.32"
   inkscape:version="0.46"
   version="1.0"
   sodipodi:docbase="D:\Documents and Settings\Joanna\My Documents\My Pictures\graph_vector\fruits"
   sodipodi:docname="papapishu_rogalik.svg"
   inkscape:export-filename="C:\joanna\Gfx\drawings_vector\nature_plants\fruits\papapishu_bulki2.png"
   inkscape:export-xdpi="90"
   inkscape:export-ydpi="90"
   inkscape:output_extension="org.inkscape.output.svg.inkscape">
  <defs
     id="defs4">
    <inkscape:perspective
       sodipodi:type="inkscape:persp3d"
       inkscape:vp_x="0 : 186.64798 : 1"
       inkscape:vp_y="0 : 1000 : 0"
       inkscape:vp_z="559.62469 : 186.64798 : 1"
       inkscape:persp3d-origin="279.81235 : 124.43199 : 1"
       id="perspective4876" />
  </defs>
  <sodipodi:namedview
     id="base"
     pagecolor="#ffffff"
     bordercolor="#666666"
     borderopacity="1.0"
     gridtolerance="10"
     guidetolerance="10"
     objecttolerance="10000"
     inkscape:pageopacity="0.0"
     inkscape:pageshadow="2"
     inkscape:zoom="1.4887912"
     inkscape:cx="45.8257"
     inkscape:cy="64"
     inkscape:document-units="px"
     inkscape:current-layer="layer1"
     inkscape:window-width="1280"
     inkscape:window-height="744"
     inkscape:window-x="-4"
     inkscape:window-y="-4"
     showgrid="true"
     borderlayer="true"
     showguides="true"
     inkscape:guide-bbox="true"
     inkscape:snap-global="false">
    <inkscape:grid
       type="xygrid"
       id="grid7194"
       visible="true"
       enabled="true"
       spacingx="8px"
       spacingy="8px" />
  </sodipodi:namedview>
  <metadata
     id="metadata7">
    <rdf:RDF>
      <cc:Work
         rdf:about="">
        <dc:format>image/svg+xml</dc:format>
        <dc:type
           rdf:resource="http://purl.org/dc/dcmitype/StillImage" />
      </cc:Work>
    </rdf:RDF>
  </metadata>
  <g
     inkscape:label="Layer 1"
     inkscape:groupmode="layer"
     id="layer1"
     transform="translate(-66.38047,-391.3222)">
    <g
       id="g3224"
       transform="translate(0,6.7168585)">
      <path
         id="path3201"
         d="M 131.84922,403.9472 C 104.55707,403.88392 79.638582,427.60633 79.53672,455.10345 C 79.832479,458.20961 78.288415,465.68058 83.19297,464.3847 C 84.022275,471.67933 86.138465,480.08607 92.25547,484.60345 C 96.009437,481.60433 98.084799,488.04988 101.63047,489.35345 C 107.2203,492.30279 113.36903,498.11865 120.06797,496.10345 C 125.72251,491.24424 119.37011,483.66574 119.38047,477.79095 C 120.84479,476.1475 123.26487,473.83902 121.91172,469.79095 C 122.35228,467.07859 121.37076,460.80517 125.75547,463.04095 C 131.08701,454.33295 140.2663,447.36631 150.59922,446.79095 C 152.03911,443.82165 154.28651,444.26134 157.16172,445.4472 C 159.46773,446.34905 162.60886,448.0779 164.09922,445.3222 C 169.52335,445.88399 174.58176,453.89725 179.91172,448.97845 C 184.32179,441.61345 178.30349,432.66119 173.50547,427.0097 C 171.39472,424.99993 172.15433,421.42943 169.25547,419.54095 C 162.70816,412.14995 153.08369,407.53912 143.13047,407.3222 C 141.01649,402.99452 135.78839,404.17616 131.84922,403.9472 z"
         style="fill:#000000;fill-opacity:1;fill-rule:evenodd;stroke:#000000;stroke-width:2.9239006;stroke-linecap:round;stroke-linejoin:round;marker:none;marker-start:none;marker-mid:none;marker-end:none;stroke-miterlimit:4;stroke-dasharray:none;stroke-dashoffset:0;stroke-opacity:1;visibility:visible;display:inline;overflow:visible;enable-background:accumulate" />
      <path
         sodipodi:nodetypes="csssssssc"
         id="path3185"
         d="M 127.82167,413.61501 C 102.39928,413.61501 87.486027,428.10435 87.486027,452.70422 C 87.486027,477.3041 97.202423,485.92981 112.62315,493.24858 C 120.32313,496.90303 121.45648,493.26986 119.66101,487.17548 C 117.57661,480.10038 117.0475,480.66933 117.0475,468.37743 C 117.0475,453.04844 129.91666,440.61629 145.7582,440.61629 C 158.46446,440.61629 168.65865,444.08816 172.52475,447.12338 C 177.21667,450.80693 181.57878,447.57975 178.39941,438.69308 C 172.63697,422.58643 153.24407,413.61501 127.82167,413.61501 z"
         style="opacity:1;fill:#ffcc00;fill-opacity:1;fill-rule:evenodd;stroke:#000000;stroke-width:2.9239006;stroke-linecap:round;stroke-linejoin:round;marker:none;marker-start:none;marker-mid:none;marker-end:none;stroke-miterlimit:4;stroke-dasharray:none;stroke-dashoffset:0;stroke-opacity:1;visibility:visible;display:inline;overflow:visible;enable-background:accumulate" />
      <path
         sodipodi:nodetypes="cscccc"
         id="path3189"
         transform="translate(66.38047,391.3222)"
         d="M 75.78125,18 C 81.32599,25.70601 84.625,35.24586 84.625,45.5625 C 84.625,47.33451 84.53275,49.08732 84.34375,50.8125 C 88.240555,51.091442 91.907984,52.145489 95.21875,53.78125 C 99.280018,48.98031 103.37667,39.385648 103.92486,32.750348 C 97.712813,23.831293 87.077305,17.905044 75.78125,18 z"
         style="opacity:1;fill:#ffcc00;fill-opacity:1;fill-rule:evenodd;stroke:#000000;stroke-width:3;stroke-linecap:round;stroke-linejoin:round;marker:none;marker-start:none;marker-mid:none;marker-end:none;stroke-miterlimit:4;stroke-dasharray:none;stroke-dashoffset:0;stroke-opacity:1;visibility:visible;display:inline;overflow:visible;enable-background:accumulate" />
      <path
         sodipodi:nodetypes="cccscscc"
         id="path3175"
         d="M 104.88047,456.35345 C 97.931644,456.35345 90.880743,458.72775 84.999266,461.62838 C 85.464651,471.09067 87.899805,477.122 92.336929,482.59069 C 97.543237,478.667 106.14503,473.72845 113.16172,473.72845 C 115.63335,473.72845 118.04354,474.02667 120.34922,474.5722 C 120.07152,473.0217 119.91172,471.41733 119.91172,469.79095 C 119.91172,466.25176 120.60091,462.87178 121.84922,459.7597 C 116.60969,457.56576 110.88336,456.35345 104.88047,456.35345 z"
         style="opacity:1;fill:#ffcc00;fill-opacity:1;fill-rule:evenodd;stroke:#000000;stroke-width:2.9239006;stroke-linecap:round;stroke-linejoin:round;marker:none;marker-start:none;marker-mid:none;marker-end:none;stroke-miterlimit:4;stroke-dasharray:none;stroke-dashoffset:0;stroke-opacity:1;visibility:visible;display:inline;overflow:visible;enable-background:accumulate" />
      <path
         id="path3168"
         d="M 133.22441,405.9293 C 104.66038,405.9293 81.500448,428.56914 81.500448,456.48397 C 81.500448,458.64088 81.644789,460.76 81.91314,462.8463 C 88.640765,458.73702 96.500377,456.34641 104.88627,456.34641 C 112.1012,456.34641 118.92181,458.09063 124.97058,461.19553 C 129.96968,452.16314 139.37707,445.79308 150.35109,444.79106 C 150.77913,442.22529 151.00452,439.57198 151.00452,436.88115 C 151.00452,425.2035 146.79174,414.53384 139.86185,406.37638 C 137.68733,406.10396 135.47427,405.9293 133.22441,405.9293 z"
         style="opacity:1;fill:#ffcc00;fill-opacity:1;fill-rule:evenodd;stroke:#000000;stroke-width:3.30152941;stroke-linecap:round;stroke-linejoin:round;marker:none;marker-start:none;marker-mid:none;marker-end:none;stroke-miterlimit:4;stroke-dasharray:none;stroke-dashoffset:0;stroke-opacity:1;visibility:visible;display:inline;overflow:visible;enable-background:accumulate" />
    </g>
  </g>
</svg>
